<svg width="29" height="186" viewBox="0 0 29 186" fill="none" xmlns="http://www.w3.org/2000/svg">
<ellipse cx="6.55598" cy="104.213" rx="5" ry="5.5" transform="rotate(89.418 6.55598 104.213)" fill="#FCF5EE"/>
<ellipse cx="22.5552" cy="104.05" rx="5" ry="5.5" transform="rotate(89.418 22.5552 104.05)" fill="#FCF5EE"/>
<ellipse cx="5.93641" cy="43.2162" rx="5" ry="5.5" transform="rotate(89.418 5.93641 43.2162)" fill="#FCF5EE"/>
<ellipse cx="21.9356" cy="43.0536" rx="5" ry="5.5" transform="rotate(89.418 21.9356 43.0536)" fill="#FCF5EE"/>
<ellipse cx="7.32792" cy="180.209" rx="5" ry="5.5" transform="rotate(89.418 7.32792 180.209)" fill="#FCF5EE"/>
<ellipse cx="23.3271" cy="180.047" rx="5" ry="5.5" transform="rotate(89.418 23.3271 180.047)" fill="#FCF5EE"/>
<ellipse cx="5.55043" cy="5.21812" rx="5" ry="5.5" transform="rotate(89.418 5.55043 5.21812)" fill="#FCF5EE"/>
<ellipse cx="21.5496" cy="5.05561" rx="5" ry="5.5" transform="rotate(89.418 21.5496 5.05561)" fill="#FCF5EE"/>
<ellipse cx="6.94197" cy="142.211" rx="5" ry="5.5" transform="rotate(89.418 6.94197 142.211)" fill="#FCF5EE"/>
<ellipse cx="22.9411" cy="142.049" rx="5" ry="5.5" transform="rotate(89.418 22.9411 142.049)" fill="#FCF5EE"/>
<ellipse cx="6.32237" cy="81.2142" rx="5" ry="5.5" transform="rotate(89.418 6.32237 81.2142)" fill="#FCF5EE"/>
<ellipse cx="22.3215" cy="81.0517" rx="5" ry="5.5" transform="rotate(89.418 22.3215 81.0517)" fill="#FCF5EE"/>
<ellipse cx="6.74898" cy="123.212" rx="5" ry="5.5" transform="rotate(89.418 6.74898 123.212)" fill="#FCF5EE"/>
<ellipse cx="22.7482" cy="123.05" rx="5" ry="5.5" transform="rotate(89.418 22.7482 123.05)" fill="#FCF5EE"/>
<ellipse cx="6.12938" cy="62.2152" rx="5" ry="5.5" transform="rotate(89.418 6.12938 62.2152)" fill="#FCF5EE"/>
<ellipse cx="22.1286" cy="62.0527" rx="5" ry="5.5" transform="rotate(89.418 22.1286 62.0527)" fill="#FCF5EE"/>
<ellipse cx="5.74342" cy="24.2171" rx="5" ry="5.5" transform="rotate(89.418 5.74342 24.2171)" fill="#FCF5EE"/>
<ellipse cx="21.7426" cy="24.0546" rx="5" ry="5.5" transform="rotate(89.418 21.7426 24.0546)" fill="#FCF5EE"/>
<ellipse cx="7.13496" cy="161.21" rx="5" ry="5.5" transform="rotate(89.418 7.13496 161.21)" fill="#FCF5EE"/>
<ellipse cx="23.1341" cy="161.048" rx="5" ry="5.5" transform="rotate(89.418 23.1341 161.048)" fill="#FCF5EE"/>
</svg>
