<svg width="29" height="186" viewBox="0 0 29 186" fill="none" xmlns="http://www.w3.org/2000/svg">
<ellipse cx="6.55605" cy="104.213" rx="5" ry="5.5" transform="rotate(89.418 6.55605 104.213)" fill="#F1B074"/>
<ellipse cx="22.5552" cy="104.05" rx="5" ry="5.5" transform="rotate(89.418 22.5552 104.05)" fill="#F1B074"/>
<ellipse cx="5.93646" cy="43.2162" rx="5" ry="5.5" transform="rotate(89.418 5.93646 43.2162)" fill="#F1B074"/>
<ellipse cx="21.9356" cy="43.0537" rx="5" ry="5.5" transform="rotate(89.418 21.9356 43.0537)" fill="#F1B074"/>
<ellipse cx="7.32799" cy="180.209" rx="5" ry="5.5" transform="rotate(89.418 7.32799 180.209)" fill="#F1B074"/>
<ellipse cx="23.3272" cy="180.047" rx="5" ry="5.5" transform="rotate(89.418 23.3272 180.047)" fill="#F1B074"/>
<ellipse cx="5.55049" cy="5.21813" rx="5" ry="5.5" transform="rotate(89.418 5.55049 5.21813)" fill="#F1B074"/>
<ellipse cx="21.5497" cy="5.05561" rx="5" ry="5.5" transform="rotate(89.418 21.5497 5.05561)" fill="#F1B074"/>
<ellipse cx="6.94202" cy="142.211" rx="5" ry="5.5" transform="rotate(89.418 6.94202 142.211)" fill="#F1B074"/>
<ellipse cx="22.9412" cy="142.049" rx="5" ry="5.5" transform="rotate(89.418 22.9412 142.049)" fill="#F1B074"/>
<ellipse cx="6.32243" cy="81.2142" rx="5" ry="5.5" transform="rotate(89.418 6.32243 81.2142)" fill="#F1B074"/>
<ellipse cx="22.3216" cy="81.0517" rx="5" ry="5.5" transform="rotate(89.418 22.3216 81.0517)" fill="#F1B074"/>
<ellipse cx="6.74904" cy="123.212" rx="5" ry="5.5" transform="rotate(89.418 6.74904 123.212)" fill="#F1B074"/>
<ellipse cx="22.7482" cy="123.05" rx="5" ry="5.5" transform="rotate(89.418 22.7482 123.05)" fill="#F1B074"/>
<ellipse cx="6.12945" cy="62.2152" rx="5" ry="5.5" transform="rotate(89.418 6.12945 62.2152)" fill="#F1B074"/>
<ellipse cx="22.1286" cy="62.0527" rx="5" ry="5.5" transform="rotate(89.418 22.1286 62.0527)" fill="#F1B074"/>
<ellipse cx="5.74347" cy="24.2171" rx="5" ry="5.5" transform="rotate(89.418 5.74347 24.2171)" fill="#F1B074"/>
<ellipse cx="21.7427" cy="24.0546" rx="5" ry="5.5" transform="rotate(89.418 21.7427 24.0546)" fill="#F1B074"/>
<ellipse cx="7.13501" cy="161.21" rx="5" ry="5.5" transform="rotate(89.418 7.13501 161.21)" fill="#F1B074"/>
<ellipse cx="23.1342" cy="161.048" rx="5" ry="5.5" transform="rotate(89.418 23.1342 161.048)" fill="#F1B074"/>
</svg>
